# xmcd CD database file
#
# Track frame offsets:
#	150
#	12418
#	26251
#	35286
#	45082
#	58839
#	71124
#	84771
#	97035
#	108463
#	119953
#	129612
#	139962
#	152793
#	163176
#	175991
#	185476
#	196265
#	205947
#	215422
#
# Disc length: 3023 seconds
#
# Revision: 1
# Processed by: cddbd v1.5.1PL2 Copyright (c) Steve Scherf et al.
# Submitted via: CDex 1.51
#
DISCID=210bcd14
DTITLE=Frankie Laine - Willie Nelson - The Great Country Collection - 8 of 8 [Frankie Laine, Willie Nelson]
DYEAR=2002
DGENRE=Country
TTITLE0=Frankie Laine - High Noon ( Do Not Forsake Me)
TTITLE1=Willie Nelson - Home Is Where You're Happy
TTITLE2=Frankie Laine - Rawhide
TTITLE3=Willie Nelson - I Didn't Sleep A Wink
TTITLE4=Frankie Laine - Riders In The Sky
TTITLE5=Willie Nelson - The Shelter Of Your Arms
TTITLE6=Frankie Laine - Cool Water
TTITLE7=Willie Nelson - I Can't Find The Time
TTITLE8=Frankie Laine - Mule Train
TTITLE9=Willie Nelson - Is There Something On Your Mind?
TTITLE10=Frankie Laine - Gunfight At The OK Corral
TTITLE11=Willie Nelson - Broken Promises
TTITLE12=Frankie Laine - The Cry Of The Wild Goose
TTITLE13=Willie Nelson - Blame It On The Times
TTITLE14=Frankie Laine - Moonlight Gambler
TTITLE15=Willie Nelson - Building Heartaches
TTITLE16=Frankie Laine - Hummingbird
TTITLE17=Willie Nelson - Let's Pretend
TTITLE18=Frankie Laine - Blazing Saddles
TTITLE19=Willie Nelson - I'm Gonna Lose A Lot Of Teardrops
EXTD=YEAR: 2002
EXTT0=
EXTT1=
EXTT2=
EXTT3=
EXTT4=
EXTT5=
EXTT6=
EXTT7=
EXTT8=
EXTT9=
EXTT10=
EXTT11=
EXTT12=
EXTT13=
EXTT14=
EXTT15=
EXTT16=
EXTT17=
EXTT18=
EXTT19=
PLAYORDER=
